<svg xmlns="http://www.w3.org/2000/svg" width="1000" height="1500" viewBox="0 0 1000 1500">
  <defs>
    <linearGradient id="bgDark" x1="0%" y1="0%" x2="0%" y2="100%">
      <stop offset="0%" stop-color="#1a1d23"/>
      <stop offset="60%" stop-color="#1a1d23"/>
      <stop offset="100%" stop-color="#2d2f36"/>
    </linearGradient>
    <linearGradient id="barGreen" x1="0%" y1="100%" x2="0%" y2="0%">
      <stop offset="0%" stop-color="#059669"/>
      <stop offset="100%" stop-color="#34d399"/>
    </linearGradient>
    <linearGradient id="barRed" x1="0%" y1="100%" x2="0%" y2="0%">
      <stop offset="0%" stop-color="#dc2626"/>
      <stop offset="100%" stop-color="#f87171"/>
    </linearGradient>
    <linearGradient id="barGold" x1="0%" y1="100%" x2="0%" y2="0%">
      <stop offset="0%" stop-color="#d97706"/>
      <stop offset="100%" stop-color="#fbbf24"/>
    </linearGradient>
    <filter id="glow">
      <feGaussianBlur stdDeviation="6" result="blur"/>
      <feMerge><feMergeNode in="blur"/><feMergeNode in="SourceGraphic"/></feMerge>
    </filter>
  </defs>
  <!-- Dark top section (60%) -->
  <rect x="0" y="0" width="1000" height="900" fill="url(#bgDark)"/>
  <!-- QFINHUB logo -->
  <text x="50" y="60" font-family="Inter, system-ui, sans-serif" font-size="16" font-weight="700" fill="#6366f1" letter-spacing="2">QFINHUB</text>
  <!-- Headline -->
  <text x="60" y="160" font-family="Playfair Display, Georgia, serif" font-size="42" font-weight="700" fill="#ffffff">Save $50,000 on Your</text>
  <text x="60" y="215" font-family="Playfair Display, Georgia, serif" font-size="42" font-weight="700" fill="#ffffff" letter-spacing="-0.5">Mortgage Interest</text>
  <text x="60" y="260" font-family="Inter, system-ui, sans-serif" font-size="18" fill="#9ca3af">Extra payments can slash your interest costs</text>
  <!-- Bar Chart: Interest Paid vs Principal -->
  <text x="130" y="320" font-family="Inter, system-ui, sans-serif" font-size="12" fill="#6b7280">WITHOUT EXTRA PAYMENTS</text>
  <rect x="130" y="330" width="340" height="260" rx="8" fill="#2d2f36"/>
  <rect x="150" y="380" width="70" height="190" rx="4" fill="url(#barRed)" opacity="0.9"/>
  <rect x="240" y="430" width="70" height="140" rx="4" fill="url(#barGreen)" opacity="0.9"/>
  <rect x="330" y="480" width="70" height="90" rx="4" fill="url(#barGold)" opacity="0.9"/>
  <text x="185" y="590" font-family="Inter, system-ui, sans-serif" font-size="11" fill="#f87171" text-anchor="middle">Interest</text>
  <text x="275" y="590" font-family="Inter, system-ui, sans-serif" font-size="11" fill="#34d399" text-anchor="middle">Principal</text>
  <text x="365" y="590" font-family="Inter, system-ui, sans-serif" font-size="11" fill="#fbbf24" text-anchor="middle">Fees</text>
  <!-- WITH EXTRA -->
  <text x="530" y="320" font-family="Inter, system-ui, sans-serif" font-size="12" fill="#6b7280">WITH $200/MO EXTRA</text>
  <rect x="530" y="330" width="340" height="260" rx="8" fill="#2d2f36"/>
  <rect x="550" y="460" width="70" height="110" rx="4" fill="url(#barGreen)" opacity="0.9"/>
  <rect x="640" y="510" width="70" height="60" rx="4" fill="url(#barGold)" opacity="0.9"/>
  <rect x="730" y="470" width="70" height="100" rx="4" fill="url(#barGreen)" opacity="0.9"/>
  <text x="585" y="590" font-family="Inter, system-ui, sans-serif" font-size="11" fill="#34d399" text-anchor="middle">Equity</text>
  <text x="675" y="590" font-family="Inter, system-ui, sans-serif" font-size="11" fill="#fbbf24" text-anchor="middle">Saved</text>
  <text x="765" y="590" font-family="Inter, system-ui, sans-serif" font-size="11" fill="#34d399" text-anchor="middle">Growth</text>
  <!-- Savings highlight -->
  <rect x="130" y="620" width="740" height="50" rx="25" fill="#065f46" opacity="0.6"/>
  <text x="500" y="651" font-family="Inter, system-ui, sans-serif" font-size="16" font-weight="700" fill="#34d399" text-anchor="middle">⚡ You could save $50,000+ and pay off 5 years early</text>
  <!-- Bottom cream section -->
  <rect x="0" y="900" width="1000" height="600" fill="#f9f7f2"/>
  <text x="500" y="980" font-family="Inter, system-ui, sans-serif" font-size="14" fill="#6b7280" text-anchor="middle">How much could YOU save?</text>
  <!-- Mock calculator input -->
  <rect x="250" y="1020" width="500" height="60" rx="12" fill="#ffffff" stroke="#d1d5db" stroke-width="1"/>
  <text x="500" y="1057" font-family="Inter, system-ui, sans-serif" font-size="16" fill="#374151" text-anchor="middle">Enter your loan balance...</text>
  <!-- CTA Button -->
  <rect x="300" y="1110" width="400" height="56" rx="28" fill="#0f766e"/>
  <text x="500" y="1144" font-family="Inter, system-ui, sans-serif" font-size="18" font-weight="700" fill="#ffffff" text-anchor="middle">Calculate Your Savings →</text>
  <!-- Features -->
  <rect x="180" y="1200" width="200" height="40" rx="8" fill="#e5e7eb" opacity="0.6"/>
  <text x="280" y="1225" font-family="Inter, system-ui, sans-serif" font-size="13" fill="#374151" text-anchor="middle">✓ No Signup</text>
  <rect x="400" y="1200" width="200" height="40" rx="8" fill="#e5e7eb" opacity="0.6"/>
  <text x="500" y="1225" font-family="Inter, system-ui, sans-serif" font-size="13" fill="#374151" text-anchor="middle">✓ Free Forever</text>
  <rect x="620" y="1200" width="200" height="40" rx="8" fill="#e5e7eb" opacity="0.6"/>
  <text x="720" y="1225" font-family="Inter, system-ui, sans-serif" font-size="13" fill="#374151" text-anchor="middle">✓ 30 Seconds</text>
  <!-- Hashtags -->
  <text x="500" y="1290" font-family="Inter, system-ui, sans-serif" font-size="12" fill="#9ca3af" text-anchor="middle">#MortgageTips #HomeOwnership #DebtFree</text>
  <!-- URL -->
  <text x="500" y="1330" font-family="Inter, system-ui, sans-serif" font-size="13" font-weight="600" fill="#0f766e" text-anchor="middle">qfinhub.com/calculators/mortgage-payoff</text>
  <!-- Bottom dots -->
  <g opacity="0.3"><circle cx="50" cy="1430" r="3" fill="#0f766e"/><circle cx="150" cy="1430" r="3" fill="#0f766e"/><circle cx="250" cy="1430" r="3" fill="#0f766e"/><circle cx="350" cy="1430" r="3" fill="#0f766e"/><circle cx="450" cy="1430" r="3" fill="#0f766e"/><circle cx="550" cy="1430" r="3" fill="#0f766e"/><circle cx="650" cy="1430" r="3" fill="#0f766e"/><circle cx="750" cy="1430" r="3" fill="#0f766e"/><circle cx="850" cy="1430" r="3" fill="#0f766e"/><circle cx="950" cy="1430" r="3" fill="#0f766e"/></g>
</svg>